PathFileType	4	(X/Y/Z)	T1_P2_NoVision_Movement_0_0-734.trc
DataRate	CameraRate	NumFrames	NumMarkers	Units	OrigDataRate	OrigDataStartFrame	OrigNumFrames
60	60	7	27	m	60	458	734
Frame#	Time	RHip			RKnee			RAnkle			RBigToe			RSmallToe			RHeel			LHip			LKnee			LAnkle			LBigToe			LSmallToe			LHeel			Neck			Head			Nose			RShoulder			RElbow			RWrist			RThumb			RIndex			RPinky			LShoulder			LElbow			LWrist			LThumb			LIndex			LPinky		
		X1	Y1	Z1	X2	Y2	Z2	X3	Y3	Z3	X4	Y4	Z4	X5	Y5	Z5	X6	Y6	Z6	X7	Y7	Z7	X8	Y8	Z8	X9	Y9	Z9	X10	Y10	Z10	X11	Y11	Z11	X12	Y12	Z12	X13	Y13	Z13	X14	Y14	Z14	X15	Y15	Z15	X16	Y16	Z16	X17	Y17	Z17	X18	Y18	Z18	X19	Y19	Z19	X20	Y20	Z20	X21	Y21	Z21	X22	Y22	Z22	X23	Y23	Z23	X24	Y24	Z24	X25	Y25	Z25	X26	Y26	Z26	X27	Y27	Z27
459	7.65	448.196031374719	3618.979177837928	540.2097289408819	852.557083527444	3644.0286913450486	555.8691841851748	1241.3115633024408	3706.6305927935146	615.5947597553184	1323.1803419256628	3612.275737757753	610.2527269344943	1309.8965927092156	3634.0505444120645	556.0727547985122	1270.3058889710214	3708.1972352819753	633.3608150403362	467.0592750194571	3499.503502116043	730.3675448778562	886.4643336672199	3547.575895989694	748.0911226800731	1228.1477100366333	3602.2141417689404	740.8181798484297	1338.972124041417	3576.2744347028665	703.9409247592623	1280.0290555730062	3475.425715775913	721.8534245022962	1268.7524422779882	3623.510978658242	738.1943538502842	-112.2264331416736	3535.442917337079	650.8588112003035	-367.2649404916349	3478.123225201399	621.2450758888352	-223.63056321957887	3406.6931961685777	587.3898808286111	-30.85336821589332	3638.875263592229	542.5990424656508	156.96744597730063	3696.2953967087574	432.77683754760835	214.95933290123406	3497.1786135996513	425.4787450164864	237.65570930532502	3423.3044059223457	481.520404019608	258.53341160981637	3426.3289012579935	486.7467540945983	304.21503475588645	3411.6343046170896	464.18344087594977	-12.434895369093708	3541.674875262207	844.383803579873	246.31341867837776	3446.8504397273136	847.2082819487678	491.45298628178375	3433.6141334965796	830.9412566075031	604.8633468408254	3430.597993002089	816.4726874026206	606.5278929884481	3399.3401234235066	816.5388330587554	609.9084548839296	3398.708444295936	849.2332015736705
460	7.666666666666667	448.3012723237612	3619.132039667427	540.3579322806515	852.6559626340802	3644.8505224118935	556.2785460782613	1241.4430113767642	3707.105217555547	615.7608926880081	1320.1680411942946	3603.291731898107	610.4887936286791	1317.4026754020429	3654.4258597889807	561.6236104333294	1270.4528304730006	3708.5316038952906	633.4486040419918	463.22232388153947	3503.682047604734	732.8428587506805	887.1593896278292	3548.3454108870533	748.3806087759918	1228.1180976751807	3601.8038814637785	740.309978762633	1338.8869166263055	3575.7727809267653	703.7574757932949	1280.0031697097681	3475.3107087707085	721.7226378132788	1268.6284777981052	3623.047062871313	737.8698418821049	-112.22358616209969	3535.348477296825	650.7873147786972	-367.2555429926093	3477.980431623613	621.1245080415331	-223.58192554326828	3406.677013830666	587.363923781674	-30.83681043255065	3639.00440030924	542.6687883907138	157.05586726434538	3696.4358947517126	432.80008024126715	214.9797266962309	3497.026871321809	425.37039522727196	237.4512277434057	3422.950562024613	481.2851394072244	258.73507693246	3426.4675668768364	486.7939500498289	304.3325617179394	3411.9069510868553	464.2417489118907	-12.481483400705033	3541.5892345236975	844.3726097332762	242.25597786216073	3445.305211743494	846.2317068591407	491.5160017729239	3433.477719020144	830.916620846722	604.9907163340139	3430.8223071768834	816.6798508808635	606.7214832883253	3399.8640638882557	816.670520971879	609.944698489485	3398.594991004047	849.1289289410597
461	7.683333333333334	457.099992870367	3615.876067270996	538.7921249132631	863.7333998748384	3663.7296553199103	570.7914926719616	1249.1803412335646	3723.6670111400786	629.2303775341603	1325.6067912496	3607.133056138417	607.1979536549285	1317.6291068754376	3654.681520413276	561.7988471319499	1279.0601142637327	3705.0324366308596	632.3257617117481	471.55504781827665	3500.8033451941938	731.2633589845557	886.4274198166135	3547.5498215659845	747.9973736449581	1235.8818184975712	3597.6121230221424	737.9877595174022	1323.725408976474	3539.7577452587734	684.207520605676	1285.3792360579055	3476.436741885909	722.7203250905327	1273.9654269421483	3615.8915064548	728.8598649627855	-112.2217762389881	3535.1854747037883	650.6356230645212	-367.27675753427883	3478.006562417431	621.1575200307973	-223.70870349826816	3406.229233256179	587.31366783724	-31.636224747662148	3622.741948373409	529.5475130397741	157.45899337516104	3696.4821612929863	432.7837488726306	219.42852655588175	3498.2700282966807	426.00133653326594	231.68061374080986	3420.2264426842853	479.57884133209694	258.16271396354347	3426.0013606134316	486.5610691676664	308.35478345059886	3412.889620420608	465.0140643507926	-12.492575652135338	3541.4351582565723	844.1985094581946	242.14925483658322	3445.031648331656	846.0506404204586	491.47418749044255	3433.4417707402763	830.8062648774203	604.9544610834533	3430.821579464405	816.5303728012003	610.578232552277	3419.3125036275583	823.3228584783149	609.9474041187622	3398.527149433077	849.1100896938826
462	7.7	457.32085683673915	3615.9977008080505	538.9348966411616	868.9037342027101	3666.3201146778774	572.516843331475	1241.4481317194104	3706.892395463301	615.7531470630321	1330.9057682089945	3633.3817342279513	615.8996889345262	1311.0887373470161	3650.8129130250213	560.9216998268079	1270.4586162977055	3708.3256480608284	633.3725730287355	467.85867729785554	3505.26284417124	733.9164852863331	885.5748307929084	3544.7799904675267	748.0002588128146	1233.6284364332898	3602.916741043468	741.142878158258	1331.2766744302542	3560.393206623474	690.1413257123185	1279.9700514293907	3475.201818432585	721.5106425370346	1271.2792112357458	3620.854066654544	731.4920057052901	-112.06367333278675	3535.09473513487	650.5038558339388	-367.1741934279217	3477.6992525229753	621.0354004069001	-219.60598994524096	3409.6964998087033	588.7861023795984	-31.63203740590759	3622.538038149345	529.5226550969411	157.38524633970113	3696.336811734251	432.67005304518307	219.46786763180955	3498.4226987505417	426.16522497234513	229.5603561002714	3401.0495870684736	474.7020417643023	257.69367170911966	3425.2870973272115	486.1981045742657	304.91258008415696	3416.505508391831	467.25443434402627	-13.317796437615309	3528.884356246468	826.0748709059399	246.24626738793216	3446.4448625340515	847.0227328989001	491.3826474048648	3433.4768745162855	830.7678275891946	605.0483984404133	3431.3795110885603	817.007037550173	606.8494156310081	3406.6287309491777	811.0580276049419	605.8798708997763	3384.5189388002104	835.6548845231154
463	7.716666666666667	457.0939480314536	3615.8740261993958	538.7968229852329	866.7576059411685	3643.5097779125012	556.1364048687868	1235.6052680709765	3702.821687702749	614.8341047237577	1325.3733084106175	3606.6621054369084	607.3048483051477	1303.0990333662014	3629.2238847241333	554.837427930919	1278.9304241990449	3704.4350540067667	631.9596803248384	467.7312504593362	3505.263200874701	733.9179610691712	885.6398082354821	3544.8128984573395	747.9296167108218	1235.7951943870128	3597.7422431460104	738.1014945371783	1331.235715658201	3560.2789193883896	690.0436563429706	1285.3745502769916	3476.743436599147	723.0423968735296	1271.064197442395	3620.530988952765	731.5294527596615	-112.06352450340135	3535.0100227257512	650.4122744708366	-367.1737202114116	3477.6741099705273	621.0570773331737	-227.6978572730401	3390.355897071352	583.5842148366783	-31.61864280319806	3622.2367531331056	529.303164900504	157.53940675837777	3696.5759533168625	432.82775028355303	219.61897101055743	3498.584479131385	426.302154587343	229.22141999783364	3400.532765026933	474.2815841303101	257.3501309951226	3425.0026401320793	486.0541397688315	308.16823884995915	3413.415826066139	465.5448428505376	-13.339471551313276	3528.774999343819	826.0743161426675	246.21690851428863	3446.349931265205	846.9896787664862	491.4828959186592	3433.321206049868	830.7123321656846	605.0334998434997	3430.714637760682	816.466776344037	606.9831021043068	3405.4991223251836	810.3650640864367	602.2173847684443	3364.997419258159	828.7288594717163
464	7.733333333333333	452.91837482416514	3620.717172855916	541.3179594067864	857.8992636244737	3647.099635261479	557.6696394837387	1235.3276319550737	3702.730664732279	614.7696606389144	1323.0270941798765	3612.1595568695197	610.3261987586175	1317.4255553992193	3654.5045095751616	561.7139711635814	1270.4214970861458	3708.288394378331	633.2994905096521	467.63950730114084	3505.198213911208	733.9234809187246	885.4678195035891	3544.7924449365205	747.781148724963	1235.9345297672485	3598.130729907204	738.3962811528797	1331.5793625146591	3560.511088494886	690.133960176488	1280.118194413062	3475.360868776449	721.5432745686047	1271.0689172837297	3620.6422490806485	731.5594450555575	-112.52481509944998	3520.105126165731	637.6644460082125	-367.10775338255706	3477.661543835321	620.9737239099703	-222.96518532055856	3386.3545782483434	581.4428069085743	-26.94797914264256	3623.5258257492947	529.7275748232036	157.58648629296053	3696.595832300476	432.7875994162428	219.60592770336814	3498.4464589063086	426.19068105297555	228.6426001491864	3399.600385647997	473.60219365205603	252.30344466591134	3423.603564939215	485.3073725872605	310.41015697218234	3427.0728430658005	477.4079798123219	-13.340033247997296	3528.7641677557144	825.968829509017	241.9221627987944	3445.104165189815	846.1114582310287	491.52608870023965	3433.418447429556	830.7445516400447	605.1172691184881	3430.495754134669	816.3331731444362	607.1208599499668	3404.870133122317	810.0379672218838	602.1170746862144	3362.240913729986	832.9664267463064
465	7.75	453.04856974361786	3620.6368661308597	541.2448346926508	857.1237387500507	3644.8648817383114	557.8650857844223	1235.5074296613318	3702.6926714549736	614.7922592370578	1323.021968930412	3611.964056823183	610.0778886821527	1303.048221494768	3629.139036023542	554.8959910927755	1278.863613331796	3704.6275601435086	631.9830146931865	467.7699030148685	3505.1996179128605	733.8558169397814	885.344376320762	3544.6738325676183	747.6083860963239	1235.8215155224934	3597.722109172053	737.9721189895554	1331.3389086428188	3560.119398569636	689.9151979849375	1285.3036728809245	3476.75561103545	722.9324877631828	1271.1722224135892	3620.383059420615	731.2945545555393	-112.61370545242556	3519.975400333053	637.5769798335549	-367.1654013249701	3477.600352735548	620.9775963892112	-223.03171195971217	3386.140370772266	581.4323584749632	-26.970425671138383	3623.320104589732	529.5787905055265	157.78573476036522	3696.652548900899	432.79534869573047	219.5323791313332	3498.1253585238105	425.9560478765281	228.8373048060593	3399.595434836656	473.80552855537667	250.57841089937082	3405.969738824261	481.14479392534804	307.99432156089136	3413.613805570698	465.7612485790901	-13.23136216590423	3528.6001144503616	825.7830921620061	246.24106718798762	3446.4518535523034	847.0448722957543	496.14670397823147	3434.835886424635	831.8457753958105	601.7826972681443	3417.5923145021907	804.3069838508914	610.2214558219297	3395.908235439877	810.5354782679455	602.25483641535	3361.7063872933813	832.5952345487212
